<svg xmlns="http://www.w3.org/2000/svg"  viewBox="0 0 333333 333333" shape-rendering="geometricPrecision" text-rendering="geometricPrecision" image-rendering="optimizeQuality" fill-rule="evenodd" clip-rule="evenodd"><path d="M166667 0c46023 0 87690 18655 117851 48816s48816 71828 48816 117851-18655 87690-48816 117851-71828 48816-117851 48816-87690-18655-117851-48816S0 212690 0 166667 18655 78977 48816 48816 120644 0 166667 0zm74896 136093s-1493-10540-6087-15168c-5821-6087-12340-6126-15320-6479-21381-1558-53495-1558-53495-1558h-56s-32100 0-53493 1558c-2992 364-9502 389-15321 6479-4597 4628-6058 15168-6058 15168s-1522 12369-1522 24763v11590c0 12369 1521 24763 1521 24763s1493 10540 6058 15176c5819 6087 13467 5889 16881 6539 12241 1169 52000 1521 52000 1521s32142-57 53524-1586c2992-353 9499-389 15321-6479 4597-4628 6087-15180 6087-15180s1522-12369 1522-24762v-11589c-31-12369-1552-24763-1552-24763l-8 8-1-1zm-90743 50415v-42976l41308 21560-41308 21416zM273295 60039c-27287-27287-64987-44165-106628-44165-41642 0-79341 16878-106628 44165s-44165 64987-44165 106628c0 41642 16878 79341 44165 106628s64987 44165 106628 44165c41642 0 79341-16878 106628-44165s44165-64987 44165-106628c0-41642-16878-79341-44165-106628z" fill="red" fill-rule="nonzero"/></svg>