<svg xmlns="http://www.w3.org/2000/svg" shape-rendering="geometricPrecision" text-rendering="geometricPrecision" image-rendering="optimizeQuality" fill-rule="evenodd" clip-rule="evenodd" viewBox="0 0 512 506.49"><path fill="#FDFDFD" fill-rule="nonzero" d="M294.24 17.11C294.24 7.69 303.52 0 315.1 0c11.57 0 20.87 7.65 20.87 17.11v74.85c0 9.42-9.3 17.11-20.87 17.11-11.58 0-20.86-7.65-20.86-17.11V17.11zm58.81 301.55h17.92c3.27 0 5.96 2.69 5.96 5.96v56.84h48.21c3.3 0 5.99 2.7 5.99 5.98v17.92c0 3.31-2.69 5.98-5.99 5.98h-78.09v-86.72c0-3.27 2.7-5.96 6-5.96zm24.77-80.55c36.98 0 70.56 15.04 94.83 39.35C496.96 301.7 512 335.25 512 372.31c0 37.02-15.02 70.61-39.3 94.88l-.68.64c-24.23 23.88-57.5 38.66-94.2 38.66-37.06 0-70.61-15.04-94.88-39.31l-.64-.69c-23.9-24.24-38.68-57.53-38.68-94.18 0-37.06 15.04-70.61 39.32-94.88 24.27-24.28 57.85-39.32 94.88-39.32zm78.74 55.41c-20.09-20.11-47.96-32.58-78.74-32.58-30.75 0-58.61 12.47-78.75 32.62-20.15 20.14-32.62 48-32.62 78.75 0 30.5 12.25 58.14 32.02 78.19l.6.55c20.14 20.14 48 32.62 78.75 32.62 30.48 0 58.12-12.26 78.21-32.03l.54-.58c20.15-20.15 32.61-48 32.61-78.75s-12.48-58.61-32.62-78.79zM56.8 242.28c-1.17 0-2.23-5.2-2.23-11.56 0-6.39.92-11.54 2.23-11.54h56.94c1.18 0 2.24 5.2 2.24 11.54 0 6.38-.92 11.56-2.24 11.56H56.8zm90.77 0c-1.17 0-2.23-5.2-2.23-11.56 0-6.39.92-11.54 2.23-11.54h56.94c1.18 0 2.24 5.2 2.24 11.54 0 6.38-.92 11.56-2.24 11.56h-56.94zm90.77 0c-1.16 0-2.22-5.2-2.22-11.56 0-6.39.92-11.54 2.22-11.54h56.94c1.19 0 2.25 5.15 2.25 11.49-5.7 3.55-11.2 7.44-16.43 11.61h-42.76zm-181.4 66.24c-1.18 0-2.24-5.2-2.24-11.57 0-6.38.93-11.58 2.24-11.58h56.94c1.18 0 2.22 5.2 2.22 11.58 0 6.37-.91 11.57-2.22 11.57H56.94zm90.77 0c-1.18 0-2.24-5.2-2.24-11.57 0-6.38.93-11.58 2.24-11.58h56.94c1.18 0 2.23 5.2 2.23 11.58 0 6.37-.92 11.57-2.23 11.57h-56.94zM57.06 374.8c-1.18 0-2.24-5.2-2.24-11.58 0-6.37.94-11.57 2.24-11.57H114c1.19 0 2.24 5.2 2.24 11.57 0 6.38-.93 11.58-2.24 11.58H57.06zm90.78 0c-1.19 0-2.25-5.2-2.25-11.58 0-6.37.94-11.57 2.25-11.57h56.94c1.18 0 2.24 5.2 2.24 11.57 0 6.38-.94 11.58-2.24 11.58h-56.94zM106.83 17.11C106.83 7.69 116.1 0 127.69 0c11.57 0 20.86 7.65 20.86 17.11v74.85c0 9.42-9.34 17.11-20.86 17.11-11.59 0-20.86-7.65-20.86-17.11V17.11zM22.97 163.64h397.39V77.46c0-2.94-1.19-5.53-3.09-7.43-1.9-1.9-4.59-3.08-7.42-3.08h-38.1c-6.39 0-11.59-5.2-11.59-11.57 0-6.38 5.2-11.58 11.59-11.58h38.1c9.32 0 17.7 3.77 23.82 9.89 6.12 6.13 9.88 14.49 9.88 23.82v136.81c-7.61-2.62-15.41-4.73-23.44-6.29v-21.38h.25H22.97v223.17c0 2.94 1.18 5.52 3.08 7.42 1.91 1.9 4.61 3.09 7.44 3.09h188.85c2.16 8.01 4.86 15.83 8.11 23.35H33.71c-9.3 0-17.7-3.75-23.84-9.89C3.75 427.72 0 419.36 0 410.02V77.55c0-9.29 3.75-17.7 9.87-23.82 6.14-6.13 14.5-9.88 23.84-9.88h40.67c6.38 0 11.57 5.2 11.57 11.56C85.95 61.8 80.76 67 74.38 67H33.71c-2.96 0-5.54 1.18-7.44 3.08-1.9 1.9-3.09 4.59-3.09 7.43v86.16h-.21v-.03zm158.95-96.69c-6.39 0-11.57-5.2-11.57-11.57 0-6.38 5.18-11.58 11.57-11.58h77.55c6.39 0 11.57 5.2 11.57 11.58 0 6.37-5.18 11.57-11.57 11.57h-77.55z"/></svg>