<svg id="Layer_1" data-name="Layer 1" xmlns="http://www.w3.org/2000/svg" viewBox="0 0 112.09 122.88"><defs><style>.cls-1{fill:#557f2d;}.cls-1,.cls-2,.cls-3,.cls-4{fill-rule:evenodd;}.cls-2{fill:#7cb142;}.cls-3{fill:#e64a19;}.cls-4{fill:#bd350d;}</style></defs><title>potted-plant</title><path class="cls-1" d="M51.85,26.56c-6,.59-11.45.5-16.17-.87A21.4,21.4,0,0,1,22.39,14.88l-.06-.13h0L16.84,3.41A2.36,2.36,0,0,1,18,.24,2.31,2.31,0,0,1,19.12,0h0L37.5,1.14c.1,0,.2,0,.3,0h.06c3.43.43,7.19.91,10.59,3.9a21.81,21.81,0,0,1,5.74,8.24,28.61,28.61,0,0,1,2,10.64,2.36,2.36,0,0,1-.12.75c.93-1.39,1.87-2.71,2.82-3.94a50.32,50.32,0,0,1,6.65-7.23c9.24-8.12,23.11-8.77,35.78-9.36,2.93-.13,5.78-.26,8.66-.51h0a2,2,0,0,1,1,.18,1.94,1.94,0,0,1,.9,2.6c-7,14.38-11.88,24.23-20,30.11C84.06,42.3,73.53,44,55.75,42.07V57.68c7.43-10.35,14.7-10.53,26.55-10.81,2.54-.06,5.31-.13,8.47-.32h0a1.94,1.94,0,0,1,1.86,2.79c-4.84,10-8,16.22-13.33,19.74-5.13,3.36-11.88,4-23.55,2.71V82.54h-3.9V72.36c-16,1.74-25.72.27-33.06-4.84C11.25,62.27,6.53,53.4.19,40.33a2,2,0,0,1,.91-2.6,1.93,1.93,0,0,1,1-.19h0c2.6.2,5.25.31,8,.41,11.72.47,24.92,1,33.26,8.32,3.9,3.43,6.64,6.28,8.52,9.43V26.56Z"/><path class="cls-2" d="M54.92,62.79a28,28,0,0,1,5.55-3.85A50.24,50.24,0,0,1,75.28,54.1a2.24,2.24,0,0,1,2.58,1.84,2.27,2.27,0,0,1-1.81,2.62,45.92,45.92,0,0,0-13.49,4.37A20.84,20.84,0,0,0,55,69.4c11.34,1.15,17.9.53,22.56-2.57s7.71-8.73,12-17.65c-2.12.08-4.15.13-6.06.18-13,.31-20.62.5-28.66,13.43Z"/><path class="cls-2" d="M49,69.84a39.22,39.22,0,0,0-9.09-8.79,47.63,47.63,0,0,0-13-6,2.1,2.1,0,1,1,1.26-4A52,52,0,0,1,42.27,57.6,43.81,43.81,0,0,1,52.85,68a22.43,22.43,0,0,0-2.26-9.1c-1.73-3.34-4.58-6.37-8.91-10.17-7.84-6.9-21.22-7.43-33.1-7.9-1.75-.07-3.47-.13-5.11-.22C9.21,52.3,13.81,60.33,20.49,65c6.36,4.42,14.89,6,28.51,4.86Z"/><path class="cls-2" d="M52.94,23.51a11.46,11.46,0,0,0-2.66-2.6,19.56,19.56,0,0,0-7.11-2.73,2.32,2.32,0,0,1,1-4.54,24,24,0,0,1,8.74,3.43c-.18-.56-.39-1.12-.61-1.67A20.33,20.33,0,0,0,47,7.72c-2.77-2.43-6.32-2.88-9.57-3.29h-.07l-17-1,4.41,9.1A20,20,0,0,0,37.07,22.56c4.51,1.31,9.84,1.45,15.87,1Z"/><path class="cls-2" d="M54.35,32.53v1.31a30.87,30.87,0,0,1,8.12-8.19c5-3.42,11-5.38,18.06-6.63a2.09,2.09,0,0,1,.72,4.12c-6.53,1.15-12,2.92-16.43,6a27.84,27.84,0,0,0-9,10.34c17,1.7,27.08,0,34.39-5.28s12.14-14.4,18.54-27.52c-1.87.11-3.84.2-5.83.3-12.89.59-27,1.25-35.82,9a49.54,49.54,0,0,0-6.6,7.15,81,81,0,0,0-6.18,9.42Z"/><polygon class="cls-3" points="20.49 82.24 92.26 82.24 80.87 122.88 31.88 122.88 20.49 82.24 20.49 82.24"/><polygon class="cls-4" points="16.73 82.24 96.02 82.24 92.26 96.14 20.49 96.14 16.73 82.24 16.73 82.24"/></svg>